# File created by Blade
# Date/Time:  Tue Jan 27 18:35:12 2015
#---------------------------------------------------------
:version 1.10
:name HOM
:units
  mass 1.0
  length 1.000000
  angle deg
:documentation
     Acclaim Skeleton File
:root
   axis xyz
   order TX TY TZ RX RY RZ
   position 0.000000 0.000000 0.000000
   orientation 0 0 0
:bonedata
   begin
      id 1
      name Spine_dum
      direction 0.000000 1.000000 0.000000
      length 5.195262
      axis 0.0 0.0 0.0 xyz
   end
   begin
      id 2
      name LeftUpLeg_dum
      direction 1.000000 0.000000 0.000000
      length 3.351363
      axis 0.0 0.0 0.0 xyz
   end
   begin
      id 3
      name RightUpLeg_dum
      direction -1.000000 0.000000 0.000000
      length 3.351363
      axis 0.0 0.0 0.0 xyz
   end
   begin
      id 4
      name Spine
      direction 0.000000 1.000000 0.000000
      length 0.000000
      axis 0.0 0.0 0.0 xyz
      dof rx ry rz
   end
   begin
      id 5
      name Spine_dum1
      direction 0.000000 1.000000 0.000000
      length 15.653875
      axis 0.0 0.0 0.0 xyz
   end
   begin
      id 6
      name Spine_dum2
      direction 0.000000 1.000000 0.000000
      length 10.329768
      axis 0.0 0.0 0.0 xyz
   end
   begin
      id 7
      name Spine_dum3
      direction 0.000000 1.000000 0.000000
      length 10.329768
      axis 0.0 0.0 0.0 xyz
   end
   begin
      id 8
      name Head
      direction 0.000000 1.000000 0.000000
      length 4.527550
      axis 0.0 0.0 0.0 xyz
      dof rx ry rz
   end
   begin
      id 9
      name LeftShoulder
      direction 1.000000 0.000000 0.000000
      length 6.996006
      axis 0.0 0.0 -90.0 xyz
      dof rx ry rz
   end
   begin
      id 10
      name LeftArm
      direction 1.000000 0.000000 0.000000
      length 10.209302
      axis 0.0 0.0 -90.0 xyz
      dof rx ry rz
   end
   begin
      id 11
      name LeftForeArm
      direction 1.000000 0.000000 0.000000
      length 8.563163
      axis 0.0 0.0 -90.0 xyz
      dof ry rz rx
   end
   begin
      id 12
      name LeftHand
      direction 0.000000 0.000000 0.000000
      length 0.000000
      axis 0.0 0.0 -90.0 xyz
      dof rx ry rz
   end
   begin
      id 13
      name LeftHand_dum1
      direction 0.000000 0.000000 0.000000
      length 0.000000
      axis 0.0 0.0 -90.0 xyz
   end
   begin
      id 14
      name LeftHand_dum2
      direction 1.000000 0.000000 0.000000
      length 3.937000
      axis 0.0 0.0 -90.0 xyz
   end
   begin
      id 15
      name LeftHandThumb1
      direction 0.000000 0.000000 1.000000
      length 3.937000
      axis 0.0 0.0 -90.0 xyz
      dof rx rz ry
   end
   begin
      id 16
      name RightShoulder
      direction -1.000000 0.000000 0.000000
      length 6.996006
      axis 0.0 0.0 90.0 xyz
      dof rx ry rz
   end
   begin
      id 17
      name RightArm
      direction -1.000000 0.000000 0.000000
      length 10.209302
      axis 0.0 0.0 90.0 xyz
      dof rx ry rz
   end
   begin
      id 18
      name RightForeArm
      direction -1.000000 0.000000 0.000000
      length 8.563163
      axis 0.0 0.0 90.0 xyz
      dof ry rz rx
   end
   begin
      id 19
      name RightHand
      direction 0.000000 0.000000 0.000000
      length 0.000000
      axis 0.0 0.0 90.0 xyz
      dof rx ry rz
   end
   begin
      id 20
      name RightHand_dum1
      direction 0.000000 0.000000 0.000000
      length 0.000000
      axis 0.0 0.0 90.0 xyz
   end
   begin
      id 21
      name RightHand_dum2
      direction -1.000000 0.000000 0.000000
      length 3.937000
      axis 0.0 0.0 90.0 xyz
   end
   begin
      id 22
      name RightHandThumb1
      direction 0.000000 0.000000 1.000000
      length 3.937000
      axis 0.0 0.0 90.0 xyz
      dof rx rz ry
   end
   begin
      id 23
      name LeftUpLeg
      direction 0.000000 -1.000000 0.000000
      length 16.346831
      axis 0.0 0.0 0.0 xyz
      dof rx ry rz
   end
   begin
      id 24
      name LeftLeg
      direction 0.000000 -1.000000 0.000000
      length 13.959795
      axis 0.0 0.0 0.0 xyz
      dof rx ry rz
   end
   begin
      id 25
      name LeftFoot
      direction 0.000000 -0.258819 0.965926
      length 5.165550
      axis 15.0 0.0 0.0 xyz
      dof rx ry rz
   end
   begin
      id 26
      name LeftToeBase
      direction 0.000000 0.000000 1.000000
      length 2.952750
      axis 0.0 0.0 0.0 xyz
      dof rx ry rz
   end
   begin
      id 27
      name RightUpLeg
      direction 0.000000 -1.000000 0.000000
      length 16.346831
      axis 0.0 0.0 0.0 xyz
      dof rx ry rz
   end
   begin
      id 28
      name RightLeg
      direction 0.000000 -1.000000 0.000000
      length 13.959795
      axis 0.0 0.0 0.0 xyz
      dof rx ry rz
   end
   begin
      id 29
      name RightFoot
      direction 0.000000 -0.258819 0.965926
      length 5.165550
      axis 15.0 0.0 0.0 xyz
      dof rx ry rz
   end
   begin
      id 30
      name RightToeBase
      direction 0.000000 0.000000 1.000000
      length 2.952750
      axis 0.0 0.0 0.0 xyz
      dof rx ry rz
   end
:hierarchy
   begin
      root Spine_dum LeftUpLeg_dum RightUpLeg_dum
      Spine_dum Spine
      LeftUpLeg_dum LeftUpLeg
      RightUpLeg_dum RightUpLeg
      Spine Spine_dum1 Spine_dum2 Spine_dum3
      Spine_dum1 Head
      Spine_dum2 LeftShoulder
      Spine_dum3 RightShoulder
      LeftShoulder LeftArm
      LeftArm LeftForeArm
      LeftForeArm LeftHand
      LeftHand LeftHand_dum1 LeftHand_dum2
      LeftHand_dum1 LeftHandThumb1
      RightShoulder RightArm
      RightArm RightForeArm
      RightForeArm RightHand
      RightHand RightHand_dum1 RightHand_dum2
      RightHand_dum1 RightHandThumb1
      LeftUpLeg LeftLeg
      LeftLeg LeftFoot
      LeftFoot LeftToeBase
      RightUpLeg RightLeg
      RightLeg RightFoot
      RightFoot RightToeBase
   end

# File created by Blade
# Date/Time:  Tue Jan 27 18:35:03 2015
# Frame Rate: 120.000 fps
#------------------------------------------------------
:FULLY-SPECIFIED
:DEGREES
1
root -6.422238 31.793249 -3.992027 6.780970 8.103511 3.105874
Spine -4.427154 -7.479197 -2.298055
Head 26.720936 7.060161 5.867414
LeftShoulder -18.769568 16.307209 12.945192
LeftArm 15.078461 -37.173243 -52.925977
LeftForeArm 147.417081 -0.000000 95.410529
LeftHand 8.463968 -0.000000 -24.924707
LeftHandThumb1 -26.253704 0.000000 33.147579
RightShoulder -15.353808 -7.813940 -17.141238
RightArm 8.533390 -15.150359 66.411580
RightForeArm -26.434072 0.000000 28.181648
RightHand -15.146426 0.000000 9.862940
RightHandThumb1 -24.326973 -0.000000 -32.862282
LeftUpLeg -5.637201 -4.912003 -0.572682
LeftLeg 6.481278 -0.000000 -0.000000
LeftFoot -17.935058 14.672847 -20.318693
LeftToeBase 7.382635 -0.000000 -0.000000
RightUpLeg -3.258982 -2.300876 1.763299
RightLeg 2.655502 -0.000000 -0.000000
RightFoot -16.617912 -12.536143 4.033775
RightToeBase 3.362397 -0.000000 -0.000000
2
root -6.449855 31.791804 -3.991152 6.761909 8.066105 3.094148
Spine -4.409707 -7.446347 -2.243895
Head 26.781398 7.072816 5.889603
LeftShoulder -18.743504 16.356647 12.911169
LeftArm 15.139628 -36.763994 -53.070665
LeftForeArm 147.619311 -0.000000 95.756914
LeftHand 8.582757 -0.000000 -25.107067
LeftHandThumb1 -26.253704 0.000000 33.147579
RightShoulder -15.418312 -7.918011 -16.948561
RightArm 8.420529 -15.464778 67.163961
RightForeArm -26.363504 -0.000000 28.026535
RightHand -15.123937 -0.000000 9.932132
RightHandThumb1 -24.326973 -0.000000 -32.862282
LeftUpLeg -5.700217 -4.878321 -0.516238
LeftLeg 6.643570 -0.000000 -0.000000
LeftFoot -18.015702 14.691897 -20.294962
LeftToeBase 7.513351 -0.000000 -0.000000
RightUpLeg -3.253459 -2.257755 1.821051
RightLeg 2.662671 -0.000000 -0.000000
RightFoot -16.600758 -12.547541 3.998100
RightToeBase 3.315965 -0.000000 -0.000000
3
root -6.474237 31.790648 -3.991273 6.740937 8.061346 3.106581
Spine -4.374379 -7.461721 -2.204766
Head 26.815714 7.092049 5.900952
LeftShoulder -18.745324 16.405366 12.847789
LeftArm 15.145734 -36.269861 -53.097076
LeftForeArm 147.730157 -0.000000 96.084438
LeftHand 8.400402 -0.000000 -25.087453
LeftHandThumb1 -26.253704 0.000000 33.147579
RightShoulder -15.430154 -7.865192 -16.805159
RightArm 8.124484 -15.673119 67.985260
RightForeArm -26.446202 0.000000 27.865023
RightHand -15.032113 0.000000 10.131855
RightHandThumb1 -24.326973 -0.000000 -32.862282
LeftUpLeg -5.761133 -4.924917 -0.482856
LeftLeg 6.809599 -0.000000 -0.000000
LeftFoot -18.089869 14.713300 -20.360727
LeftToeBase 7.517524 -0.000000 -0.000000
RightUpLeg -3.236876 -2.258576 1.850785
RightLeg 2.661139 -0.000000 -0.000000
RightFoot -16.599005 -12.544102 3.950109
RightToeBase 3.313427 -0.000000 -0.000000
4
root -6.500067 31.788941 -3.987211 6.706624 8.045611 3.100990
Spine -4.341402 -7.496443 -2.149799
Head 26.852723 7.156949 5.898583
LeftShoulder -18.785960 16.477718 12.805013
LeftArm 15.227228 -35.781856 -53.254595
LeftForeArm 147.816450 -0.000000 96.376278
LeftHand 8.444542 0.000000 -25.207804
LeftHandThumb1 -26.253704 0.000000 33.147579
RightShoulder -15.431141 -7.853508 -16.662250
RightArm 7.857750 -15.884003 68.786213
RightForeArm -26.401610 -0.000000 27.727312
RightHand -14.993678 0.000000 10.230953
RightHandThumb1 -24.326973 -0.000000 -32.862282
LeftUpLeg -5.807196 -4.935841 -0.421936
LeftLeg 7.006772 -0.000000 -0.000000
LeftFoot -18.204959 14.600249 -20.514191
LeftToeBase 7.574516 -0.000000 -0.000000
RightUpLeg -3.206544 -2.250513 1.901035
RightLeg 2.668114 -0.000000 -0.000000
RightFoot -16.601175 -12.539964 3.924461
RightToeBase 3.275747 -0.000000 -0.000000
5
root -6.522362 31.787072 -3.990321 6.694529 8.010841 3.106147
Spine -4.307029 -7.500286 -2.091316
Head 26.855164 7.223989 5.861299
LeftShoulder -18.815322 16.544542 12.727576
LeftArm 15.314016 -35.325754 -53.418971
LeftForeArm 147.990505 0.000000 96.651219
LeftHand 8.338193 -0.000000 -24.799325
LeftHandThumb1 -26.253704 0.000000 33.147579
RightShoulder -15.472630 -7.781211 -16.581388
RightArm 7.530512 -16.247661 69.594839
RightForeArm -26.260761 -0.000000 27.638498
RightHand -15.062581 -0.000000 10.167374
RightHandThumb1 -24.326973 -0.000000 -32.862282
LeftUpLeg -5.902859 -4.989398 -0.398357
LeftLeg 7.216846 -0.000000 -0.000000
LeftFoot -18.322026 14.707921 -20.571644
LeftToeBase 7.550561 -0.000000 -0.000000
RightUpLeg -3.220402 -2.221552 1.930015
RightLeg 2.697744 -0.000000 -0.000000
RightFoot -16.622796 -12.525025 3.924517
RightToeBase 3.349694 -0.000000 -0.000000
